<?xml version="1.0" standalone="no"?>
<!DOCTYPE svg PUBLIC "-//W3C//DTD SVG 20010904//EN"
 "http://www.w3.org/TR/2001/REC-SVG-20010904/DTD/svg10.dtd">
<svg version="1.0" xmlns="http://www.w3.org/2000/svg"
 width="283.000000pt" height="283.000000pt" viewBox="0 0 283.000000 283.000000"
 preserveAspectRatio="xMidYMid meet">
<metadata>
Created by potrace 1.11, written by Peter Selinger 2001-2013
</metadata>
<g transform="translate(0.000000,283.000000) scale(0.100000,-0.100000)"
fill="#000000" stroke="none">
<path d="M574 2478 c-28 -22 -39 -31 -107 -90 -18 -15 -43 -28 -57 -29 -22 0
-22 -1 -6 -8 21 -8 7 -20 -276 -250 l-127 -103 57 -68 c117 -139 160 -241 143
-335 -12 -67 -43 -142 -98 -243 -92 -168 -96 -288 -17 -460 94 -205 227 -336
414 -406 157 -60 298 -85 483 -85 148 -1 192 -12 290 -73 43 -26 87 -48 98
-48 11 0 43 15 72 33 52 32 103 58 142 72 11 5 101 11 200 15 285 12 417 44
590 141 22 13 76 59 120 104 169 170 257 409 211 568 -9 31 -41 103 -70 159
-68 131 -89 197 -90 278 0 57 4 73 36 131 21 36 44 72 53 79 9 7 38 42 66 76
56 71 58 63 -21 124 -25 19 -47 37 -50 40 -3 3 -30 25 -60 50 -30 25 -64 53
-75 63 -11 10 -45 37 -75 60 -30 23 -59 47 -65 53 -5 6 -32 28 -60 50 -27 21
-52 41 -55 44 -18 19 -99 80 -106 80 -5 0 -22 -11 -37 -24 -68 -59 -230 -116
-329 -116 -48 0 -157 22 -206 42 -15 6 -64 29 -110 52 l-83 41 -32 -19 c-63
-36 -77 -42 -172 -79 -91 -36 -199 -46 -283 -26 -47 11 -172 58 -182 69 -6 7
-89 60 -93 60 -2 0 -16 -10 -33 -22z"/>
</g>
</svg>
